<mxfile host="app.diagrams.net" modified="2021-10-24T11:34:03.010Z" agent="5.0 (Windows NT 10.0; Win64; x64) AppleWebKit/537.36 (KHTML, like Gecko) Chrome/95.0.4638.54 Safari/537.36" etag="lrdW2-C99DKosCEQSvLL" version="15.5.8" type="github">
  <diagram id="1apHO-mbDHKd1CBKVTFc" name="Page-1">
    <mxGraphModel dx="1689" dy="488" grid="1" gridSize="10" guides="1" tooltips="1" connect="1" arrows="1" fold="1" page="1" pageScale="1" pageWidth="827" pageHeight="1169" math="0" shadow="0">
      <root>
        <mxCell id="0" />
        <mxCell id="1" parent="0" />
        <mxCell id="hIJaKooDQX80jrJx0AJT-3" value="ChangeInfo" style="whiteSpace=wrap;html=1;align=center;" parent="1" vertex="1">
          <mxGeometry x="280" y="140" width="100" height="40" as="geometry" />
        </mxCell>
        <mxCell id="hIJaKooDQX80jrJx0AJT-5" value="contains" style="shape=rhombus;perimeter=rhombusPerimeter;whiteSpace=wrap;html=1;align=center;" parent="1" vertex="1">
          <mxGeometry x="414" y="135" width="80" height="50" as="geometry" />
        </mxCell>
        <mxCell id="hIJaKooDQX80jrJx0AJT-6" value="ChangeMessageInfo" style="whiteSpace=wrap;html=1;align=center;" parent="1" vertex="1">
          <mxGeometry x="540" y="139.83" width="120" height="40" as="geometry" />
        </mxCell>
        <mxCell id="hIJaKooDQX80jrJx0AJT-7" value="" style="endArrow=none;html=1;rounded=0;exitX=1;exitY=0.5;exitDx=0;exitDy=0;entryX=0;entryY=0.5;entryDx=0;entryDy=0;" parent="1" source="hIJaKooDQX80jrJx0AJT-3" target="hIJaKooDQX80jrJx0AJT-5" edge="1">
          <mxGeometry relative="1" as="geometry">
            <mxPoint x="330" y="250" as="sourcePoint" />
            <mxPoint x="490" y="250" as="targetPoint" />
          </mxGeometry>
        </mxCell>
        <mxCell id="hIJaKooDQX80jrJx0AJT-8" value="1" style="resizable=0;html=1;align=right;verticalAlign=bottom;" parent="hIJaKooDQX80jrJx0AJT-7" connectable="0" vertex="1">
          <mxGeometry x="1" relative="1" as="geometry">
            <mxPoint x="-14" as="offset" />
          </mxGeometry>
        </mxCell>
        <mxCell id="hIJaKooDQX80jrJx0AJT-10" value="" style="endArrow=none;html=1;rounded=0;entryX=0;entryY=0.5;entryDx=0;entryDy=0;exitX=1;exitY=0.5;exitDx=0;exitDy=0;" parent="1" source="hIJaKooDQX80jrJx0AJT-5" target="hIJaKooDQX80jrJx0AJT-6" edge="1">
          <mxGeometry relative="1" as="geometry">
            <mxPoint x="330" y="250" as="sourcePoint" />
            <mxPoint x="490" y="250" as="targetPoint" />
          </mxGeometry>
        </mxCell>
        <mxCell id="hIJaKooDQX80jrJx0AJT-11" value="N" style="resizable=0;html=1;align=right;verticalAlign=bottom;" parent="hIJaKooDQX80jrJx0AJT-10" connectable="0" vertex="1">
          <mxGeometry x="1" relative="1" as="geometry">
            <mxPoint x="-20" as="offset" />
          </mxGeometry>
        </mxCell>
        <mxCell id="hIJaKooDQX80jrJx0AJT-12" value="ProjectInfo" style="whiteSpace=wrap;html=1;align=center;" parent="1" vertex="1">
          <mxGeometry x="10" y="20" width="100" height="40" as="geometry" />
        </mxCell>
        <mxCell id="hIJaKooDQX80jrJx0AJT-13" value="contains" style="shape=rhombus;perimeter=rhombusPerimeter;whiteSpace=wrap;html=1;align=center;rotation=35;" parent="1" vertex="1">
          <mxGeometry x="130" y="80" width="90" height="50" as="geometry" />
        </mxCell>
        <mxCell id="hIJaKooDQX80jrJx0AJT-14" value="" style="endArrow=none;html=1;rounded=0;exitX=1;exitY=0.5;exitDx=0;exitDy=0;entryX=0;entryY=0.5;entryDx=0;entryDy=0;" parent="1" source="hIJaKooDQX80jrJx0AJT-13" target="hIJaKooDQX80jrJx0AJT-3" edge="1">
          <mxGeometry relative="1" as="geometry">
            <mxPoint x="330" y="110" as="sourcePoint" />
            <mxPoint x="490" y="110" as="targetPoint" />
          </mxGeometry>
        </mxCell>
        <mxCell id="hIJaKooDQX80jrJx0AJT-15" value="N" style="resizable=0;html=1;align=right;verticalAlign=bottom;" parent="hIJaKooDQX80jrJx0AJT-14" connectable="0" vertex="1">
          <mxGeometry x="1" relative="1" as="geometry">
            <mxPoint x="-10" y="-10" as="offset" />
          </mxGeometry>
        </mxCell>
        <mxCell id="hIJaKooDQX80jrJx0AJT-16" value="" style="endArrow=none;html=1;rounded=0;entryX=1;entryY=1;entryDx=0;entryDy=0;" parent="1" source="hIJaKooDQX80jrJx0AJT-13" target="hIJaKooDQX80jrJx0AJT-12" edge="1">
          <mxGeometry relative="1" as="geometry">
            <mxPoint x="330" y="110" as="sourcePoint" />
            <mxPoint x="490" y="110" as="targetPoint" />
          </mxGeometry>
        </mxCell>
        <mxCell id="hIJaKooDQX80jrJx0AJT-17" value="1" style="resizable=0;html=1;align=right;verticalAlign=bottom;" parent="hIJaKooDQX80jrJx0AJT-16" connectable="0" vertex="1">
          <mxGeometry x="1" relative="1" as="geometry">
            <mxPoint x="20" as="offset" />
          </mxGeometry>
        </mxCell>
        <mxCell id="hIJaKooDQX80jrJx0AJT-19" value="BranchInfo" style="whiteSpace=wrap;html=1;align=center;" parent="1" vertex="1">
          <mxGeometry x="-50" y="140" width="100" height="40" as="geometry" />
        </mxCell>
        <mxCell id="hIJaKooDQX80jrJx0AJT-20" value="contains" style="shape=rhombus;perimeter=rhombusPerimeter;whiteSpace=wrap;html=1;align=center;rotation=0;" parent="1" vertex="1">
          <mxGeometry x="126.28999999999999" y="140" width="93.71" height="39.83" as="geometry" />
        </mxCell>
        <mxCell id="hIJaKooDQX80jrJx0AJT-22" value="" style="endArrow=none;html=1;rounded=0;exitX=0;exitY=0.5;exitDx=0;exitDy=0;entryX=1;entryY=0.5;entryDx=0;entryDy=0;" parent="1" source="hIJaKooDQX80jrJx0AJT-20" target="hIJaKooDQX80jrJx0AJT-19" edge="1">
          <mxGeometry relative="1" as="geometry">
            <mxPoint x="153.18019484660533" y="83.18019484660533" as="sourcePoint" />
            <mxPoint x="120" y="120" as="targetPoint" />
          </mxGeometry>
        </mxCell>
        <mxCell id="hIJaKooDQX80jrJx0AJT-23" value="1" style="resizable=0;html=1;align=right;verticalAlign=bottom;" parent="hIJaKooDQX80jrJx0AJT-22" connectable="0" vertex="1">
          <mxGeometry x="1" relative="1" as="geometry">
            <mxPoint x="20" as="offset" />
          </mxGeometry>
        </mxCell>
        <mxCell id="hIJaKooDQX80jrJx0AJT-24" value="" style="endArrow=none;html=1;rounded=0;entryX=0;entryY=0.5;entryDx=0;entryDy=0;exitX=1;exitY=0.5;exitDx=0;exitDy=0;" parent="1" source="hIJaKooDQX80jrJx0AJT-20" target="hIJaKooDQX80jrJx0AJT-3" edge="1">
          <mxGeometry relative="1" as="geometry">
            <mxPoint x="330" y="250" as="sourcePoint" />
            <mxPoint x="490" y="250" as="targetPoint" />
          </mxGeometry>
        </mxCell>
        <mxCell id="hIJaKooDQX80jrJx0AJT-25" value="N" style="resizable=0;html=1;align=right;verticalAlign=bottom;" parent="hIJaKooDQX80jrJx0AJT-24" connectable="0" vertex="1">
          <mxGeometry x="1" relative="1" as="geometry">
            <mxPoint x="-40" as="offset" />
          </mxGeometry>
        </mxCell>
        <mxCell id="hIJaKooDQX80jrJx0AJT-26" value="AccountInfo" style="whiteSpace=wrap;html=1;align=center;" parent="1" vertex="1">
          <mxGeometry x="280" y="360" width="100" height="40" as="geometry" />
        </mxCell>
        <mxCell id="hIJaKooDQX80jrJx0AJT-27" value="owner" style="shape=rhombus;perimeter=rhombusPerimeter;whiteSpace=wrap;html=1;align=center;rotation=-90;" parent="1" vertex="1">
          <mxGeometry x="292.52" y="257.49" width="74.97" height="39.73" as="geometry" />
        </mxCell>
        <mxCell id="hIJaKooDQX80jrJx0AJT-30" value="" style="endArrow=none;html=1;rounded=0;entryX=0.5;entryY=0;entryDx=0;entryDy=0;exitX=0;exitY=0.5;exitDx=0;exitDy=0;" parent="1" source="hIJaKooDQX80jrJx0AJT-27" target="hIJaKooDQX80jrJx0AJT-26" edge="1">
          <mxGeometry relative="1" as="geometry">
            <mxPoint x="130" y="230" as="sourcePoint" />
            <mxPoint x="290" y="250" as="targetPoint" />
          </mxGeometry>
        </mxCell>
        <mxCell id="hIJaKooDQX80jrJx0AJT-31" value="1" style="resizable=0;html=1;align=right;verticalAlign=bottom;" parent="hIJaKooDQX80jrJx0AJT-30" connectable="0" vertex="1">
          <mxGeometry x="1" relative="1" as="geometry">
            <mxPoint y="-23" as="offset" />
          </mxGeometry>
        </mxCell>
        <mxCell id="dZakz6E4PJcBAFK5S5Gv-2" value="" style="endArrow=none;html=1;rounded=0;entryX=0.5;entryY=1;entryDx=0;entryDy=0;exitX=1;exitY=0.5;exitDx=0;exitDy=0;" edge="1" parent="1" source="hIJaKooDQX80jrJx0AJT-27" target="hIJaKooDQX80jrJx0AJT-3">
          <mxGeometry relative="1" as="geometry">
            <mxPoint x="340" y="230" as="sourcePoint" />
            <mxPoint x="329.5" y="190" as="targetPoint" />
          </mxGeometry>
        </mxCell>
        <mxCell id="dZakz6E4PJcBAFK5S5Gv-3" value="1" style="resizable=0;html=1;align=right;verticalAlign=bottom;" connectable="0" vertex="1" parent="dZakz6E4PJcBAFK5S5Gv-2">
          <mxGeometry x="1" relative="1" as="geometry">
            <mxPoint y="40" as="offset" />
          </mxGeometry>
        </mxCell>
        <mxCell id="dZakz6E4PJcBAFK5S5Gv-4" value="author" style="shape=rhombus;perimeter=rhombusPerimeter;whiteSpace=wrap;html=1;align=center;rotation=-45;" vertex="1" parent="1">
          <mxGeometry x="404" y="230" width="100" height="47.22" as="geometry" />
        </mxCell>
        <mxCell id="dZakz6E4PJcBAFK5S5Gv-5" value="" style="endArrow=none;html=1;rounded=0;entryX=0.5;entryY=1;entryDx=0;entryDy=0;exitX=1;exitY=0.5;exitDx=0;exitDy=0;" edge="1" parent="1" source="dZakz6E4PJcBAFK5S5Gv-4" target="hIJaKooDQX80jrJx0AJT-6">
          <mxGeometry relative="1" as="geometry">
            <mxPoint x="240" y="250" as="sourcePoint" />
            <mxPoint x="400" y="250" as="targetPoint" />
          </mxGeometry>
        </mxCell>
        <mxCell id="dZakz6E4PJcBAFK5S5Gv-6" value="1" style="resizable=0;html=1;align=right;verticalAlign=bottom;" connectable="0" vertex="1" parent="dZakz6E4PJcBAFK5S5Gv-5">
          <mxGeometry x="1" relative="1" as="geometry">
            <mxPoint x="-80" y="30" as="offset" />
          </mxGeometry>
        </mxCell>
        <mxCell id="dZakz6E4PJcBAFK5S5Gv-7" value="" style="endArrow=none;html=1;rounded=0;entryX=1;entryY=0.5;entryDx=0;entryDy=0;exitX=0;exitY=0.5;exitDx=0;exitDy=0;" edge="1" parent="1" source="dZakz6E4PJcBAFK5S5Gv-4" target="hIJaKooDQX80jrJx0AJT-26">
          <mxGeometry relative="1" as="geometry">
            <mxPoint x="240" y="250" as="sourcePoint" />
            <mxPoint x="400" y="250" as="targetPoint" />
          </mxGeometry>
        </mxCell>
        <mxCell id="dZakz6E4PJcBAFK5S5Gv-8" value="1" style="resizable=0;html=1;align=right;verticalAlign=bottom;" connectable="0" vertex="1" parent="dZakz6E4PJcBAFK5S5Gv-7">
          <mxGeometry x="1" relative="1" as="geometry">
            <mxPoint x="50" y="-60" as="offset" />
          </mxGeometry>
        </mxCell>
        <mxCell id="dZakz6E4PJcBAFK5S5Gv-9" value="real_author" style="shape=rhombus;perimeter=rhombusPerimeter;whiteSpace=wrap;html=1;align=center;rotation=-45;" vertex="1" parent="1">
          <mxGeometry x="470" y="277.22" width="100" height="47.22" as="geometry" />
        </mxCell>
        <mxCell id="dZakz6E4PJcBAFK5S5Gv-10" value="" style="endArrow=none;html=1;rounded=0;exitX=1;exitY=0.5;exitDx=0;exitDy=0;" edge="1" parent="1" source="dZakz6E4PJcBAFK5S5Gv-9">
          <mxGeometry relative="1" as="geometry">
            <mxPoint x="240" y="250" as="sourcePoint" />
            <mxPoint x="600" y="180" as="targetPoint" />
          </mxGeometry>
        </mxCell>
        <mxCell id="dZakz6E4PJcBAFK5S5Gv-11" value="1" style="resizable=0;html=1;align=right;verticalAlign=bottom;" connectable="0" vertex="1" parent="dZakz6E4PJcBAFK5S5Gv-10">
          <mxGeometry x="1" relative="1" as="geometry">
            <mxPoint x="-10" y="73" as="offset" />
          </mxGeometry>
        </mxCell>
        <mxCell id="dZakz6E4PJcBAFK5S5Gv-12" value="" style="endArrow=none;html=1;rounded=0;exitX=0;exitY=0.5;exitDx=0;exitDy=0;entryX=1;entryY=0.5;entryDx=0;entryDy=0;" edge="1" parent="1" source="dZakz6E4PJcBAFK5S5Gv-9" target="hIJaKooDQX80jrJx0AJT-26">
          <mxGeometry relative="1" as="geometry">
            <mxPoint x="518.3246609406725" y="389.9953390593273" as="sourcePoint" />
            <mxPoint x="389.68" y="421.03" as="targetPoint" />
          </mxGeometry>
        </mxCell>
        <mxCell id="dZakz6E4PJcBAFK5S5Gv-13" value="1" style="resizable=0;html=1;align=right;verticalAlign=bottom;" connectable="0" vertex="1" parent="dZakz6E4PJcBAFK5S5Gv-12">
          <mxGeometry x="1" relative="1" as="geometry">
            <mxPoint x="90" y="-15" as="offset" />
          </mxGeometry>
        </mxCell>
        <mxCell id="dZakz6E4PJcBAFK5S5Gv-14" value="RevisionInfo" style="whiteSpace=wrap;html=1;align=center;" vertex="1" parent="1">
          <mxGeometry x="26.29" y="324.44" width="100" height="40" as="geometry" />
        </mxCell>
        <mxCell id="dZakz6E4PJcBAFK5S5Gv-15" value="contains" style="shape=rhombus;perimeter=rhombusPerimeter;whiteSpace=wrap;html=1;align=center;rotation=-30;" vertex="1" parent="1">
          <mxGeometry x="160" y="250" width="100" height="38.61" as="geometry" />
        </mxCell>
        <mxCell id="dZakz6E4PJcBAFK5S5Gv-16" value="" style="endArrow=none;html=1;rounded=0;exitX=1;exitY=0.5;exitDx=0;exitDy=0;entryX=0.5;entryY=1;entryDx=0;entryDy=0;" edge="1" parent="1" source="dZakz6E4PJcBAFK5S5Gv-15" target="hIJaKooDQX80jrJx0AJT-3">
          <mxGeometry relative="1" as="geometry">
            <mxPoint x="110.00127018922191" y="324.44" as="sourcePoint" />
            <mxPoint x="274.18" y="235.82999999999998" as="targetPoint" />
          </mxGeometry>
        </mxCell>
        <mxCell id="dZakz6E4PJcBAFK5S5Gv-17" value="1" style="resizable=0;html=1;align=right;verticalAlign=bottom;" connectable="0" vertex="1" parent="dZakz6E4PJcBAFK5S5Gv-16">
          <mxGeometry x="1" relative="1" as="geometry">
            <mxPoint x="-80" y="30" as="offset" />
          </mxGeometry>
        </mxCell>
        <mxCell id="dZakz6E4PJcBAFK5S5Gv-18" value="" style="endArrow=none;html=1;rounded=0;exitX=0;exitY=0.5;exitDx=0;exitDy=0;" edge="1" parent="1" source="dZakz6E4PJcBAFK5S5Gv-15" target="dZakz6E4PJcBAFK5S5Gv-14">
          <mxGeometry relative="1" as="geometry">
            <mxPoint x="110.00370868554656" y="305.60595225512606" as="sourcePoint" />
            <mxPoint x="20.45" y="360.00000000000006" as="targetPoint" />
          </mxGeometry>
        </mxCell>
        <mxCell id="dZakz6E4PJcBAFK5S5Gv-19" value="N" style="resizable=0;html=1;align=right;verticalAlign=bottom;" connectable="0" vertex="1" parent="dZakz6E4PJcBAFK5S5Gv-18">
          <mxGeometry x="1" relative="1" as="geometry">
            <mxPoint x="30" y="-29" as="offset" />
          </mxGeometry>
        </mxCell>
        <mxCell id="dZakz6E4PJcBAFK5S5Gv-20" value="uploader" style="shape=rhombus;perimeter=rhombusPerimeter;whiteSpace=wrap;html=1;align=center;rotation=15;" vertex="1" parent="1">
          <mxGeometry x="155" y="350" width="95" height="30" as="geometry" />
        </mxCell>
        <mxCell id="dZakz6E4PJcBAFK5S5Gv-23" value="" style="endArrow=none;html=1;rounded=0;entryX=1;entryY=0.5;entryDx=0;entryDy=0;" edge="1" parent="1" source="dZakz6E4PJcBAFK5S5Gv-20" target="dZakz6E4PJcBAFK5S5Gv-14">
          <mxGeometry relative="1" as="geometry">
            <mxPoint x="110" y="330" as="sourcePoint" />
            <mxPoint x="90" y="329.5" as="targetPoint" />
          </mxGeometry>
        </mxCell>
        <mxCell id="dZakz6E4PJcBAFK5S5Gv-24" value="N" style="resizable=0;html=1;align=right;verticalAlign=bottom;" connectable="0" vertex="1" parent="dZakz6E4PJcBAFK5S5Gv-23">
          <mxGeometry x="1" relative="1" as="geometry">
            <mxPoint x="40" as="offset" />
          </mxGeometry>
        </mxCell>
        <mxCell id="dZakz6E4PJcBAFK5S5Gv-25" value="" style="endArrow=none;html=1;rounded=0;entryX=0;entryY=0.5;entryDx=0;entryDy=0;exitX=1;exitY=0.5;exitDx=0;exitDy=0;" edge="1" parent="1" source="dZakz6E4PJcBAFK5S5Gv-20" target="hIJaKooDQX80jrJx0AJT-26">
          <mxGeometry relative="1" as="geometry">
            <mxPoint x="240" y="250" as="sourcePoint" />
            <mxPoint x="400" y="250" as="targetPoint" />
          </mxGeometry>
        </mxCell>
        <mxCell id="dZakz6E4PJcBAFK5S5Gv-26" value="1" style="resizable=0;html=1;align=right;verticalAlign=bottom;" connectable="0" vertex="1" parent="dZakz6E4PJcBAFK5S5Gv-25">
          <mxGeometry x="1" relative="1" as="geometry">
            <mxPoint x="-10" as="offset" />
          </mxGeometry>
        </mxCell>
        <mxCell id="dZakz6E4PJcBAFK5S5Gv-27" value="CommitInfo" style="whiteSpace=wrap;html=1;align=center;" vertex="1" parent="1">
          <mxGeometry x="-90" y="499.83" width="100" height="40" as="geometry" />
        </mxCell>
        <mxCell id="dZakz6E4PJcBAFK5S5Gv-28" value="contains" style="shape=rhombus;perimeter=rhombusPerimeter;whiteSpace=wrap;html=1;align=center;rotation=105;" vertex="1" parent="1">
          <mxGeometry x="-50" y="390" width="90" height="40" as="geometry" />
        </mxCell>
        <mxCell id="dZakz6E4PJcBAFK5S5Gv-29" value="" style="endArrow=none;html=1;rounded=0;entryX=0.5;entryY=0;entryDx=0;entryDy=0;exitX=1;exitY=0.5;exitDx=0;exitDy=0;" edge="1" parent="1" source="dZakz6E4PJcBAFK5S5Gv-28" target="dZakz6E4PJcBAFK5S5Gv-27">
          <mxGeometry relative="1" as="geometry">
            <mxPoint x="60" y="319" as="sourcePoint" />
            <mxPoint x="220" y="319" as="targetPoint" />
          </mxGeometry>
        </mxCell>
        <mxCell id="dZakz6E4PJcBAFK5S5Gv-30" value="1" style="resizable=0;html=1;align=right;verticalAlign=bottom;" connectable="0" vertex="1" parent="dZakz6E4PJcBAFK5S5Gv-29">
          <mxGeometry x="1" relative="1" as="geometry">
            <mxPoint x="10" y="-10" as="offset" />
          </mxGeometry>
        </mxCell>
        <mxCell id="dZakz6E4PJcBAFK5S5Gv-31" value="" style="endArrow=none;html=1;rounded=0;entryX=0;entryY=0.5;entryDx=0;entryDy=0;exitX=0;exitY=0.5;exitDx=0;exitDy=0;" edge="1" parent="1" source="dZakz6E4PJcBAFK5S5Gv-28" target="dZakz6E4PJcBAFK5S5Gv-14">
          <mxGeometry relative="1" as="geometry">
            <mxPoint x="100" y="400" as="sourcePoint" />
            <mxPoint x="400" y="390" as="targetPoint" />
          </mxGeometry>
        </mxCell>
        <mxCell id="dZakz6E4PJcBAFK5S5Gv-32" value="1" style="resizable=0;html=1;align=right;verticalAlign=bottom;" connectable="0" vertex="1" parent="dZakz6E4PJcBAFK5S5Gv-31">
          <mxGeometry x="1" relative="1" as="geometry">
            <mxPoint x="-32" y="36" as="offset" />
          </mxGeometry>
        </mxCell>
        <mxCell id="dZakz6E4PJcBAFK5S5Gv-33" value="Parents" style="shape=rhombus;perimeter=rhombusPerimeter;whiteSpace=wrap;html=1;align=center;" vertex="1" parent="1">
          <mxGeometry x="-40" y="589.83" width="110" height="50" as="geometry" />
        </mxCell>
        <mxCell id="dZakz6E4PJcBAFK5S5Gv-34" value="" style="endArrow=none;html=1;rounded=0;entryX=0.5;entryY=1;entryDx=0;entryDy=0;exitX=0;exitY=0.5;exitDx=0;exitDy=0;" edge="1" parent="1" source="dZakz6E4PJcBAFK5S5Gv-33" target="dZakz6E4PJcBAFK5S5Gv-27">
          <mxGeometry relative="1" as="geometry">
            <mxPoint x="-40" y="614.83" as="sourcePoint" />
            <mxPoint x="-115" y="609.83" as="targetPoint" />
          </mxGeometry>
        </mxCell>
        <mxCell id="dZakz6E4PJcBAFK5S5Gv-35" value="1" style="resizable=0;html=1;align=right;verticalAlign=bottom;" connectable="0" vertex="1" parent="dZakz6E4PJcBAFK5S5Gv-34">
          <mxGeometry x="1" relative="1" as="geometry">
            <mxPoint x="20" y="30" as="offset" />
          </mxGeometry>
        </mxCell>
        <mxCell id="dZakz6E4PJcBAFK5S5Gv-36" value="" style="endArrow=none;html=1;rounded=0;entryX=1;entryY=0.5;entryDx=0;entryDy=0;exitX=1;exitY=0.5;exitDx=0;exitDy=0;" edge="1" parent="1" source="dZakz6E4PJcBAFK5S5Gv-33" target="dZakz6E4PJcBAFK5S5Gv-27">
          <mxGeometry relative="1" as="geometry">
            <mxPoint x="60" y="629.83" as="sourcePoint" />
            <mxPoint x="220" y="629.83" as="targetPoint" />
            <Array as="points">
              <mxPoint x="70" y="519.83" />
            </Array>
          </mxGeometry>
        </mxCell>
        <mxCell id="dZakz6E4PJcBAFK5S5Gv-37" value="N" style="resizable=0;html=1;align=right;verticalAlign=bottom;" connectable="0" vertex="1" parent="dZakz6E4PJcBAFK5S5Gv-36">
          <mxGeometry x="1" relative="1" as="geometry">
            <mxPoint x="50" y="45" as="offset" />
          </mxGeometry>
        </mxCell>
        <mxCell id="dZakz6E4PJcBAFK5S5Gv-38" value="FileInfo" style="whiteSpace=wrap;html=1;align=center;" vertex="1" parent="1">
          <mxGeometry x="210" y="565" width="100" height="40" as="geometry" />
        </mxCell>
        <mxCell id="dZakz6E4PJcBAFK5S5Gv-39" value="contains" style="shape=rhombus;perimeter=rhombusPerimeter;whiteSpace=wrap;html=1;align=center;rotation=45;" vertex="1" parent="1">
          <mxGeometry x="110" y="430" width="100" height="49.83" as="geometry" />
        </mxCell>
        <mxCell id="dZakz6E4PJcBAFK5S5Gv-40" value="" style="endArrow=none;html=1;rounded=0;entryX=0.5;entryY=0;entryDx=0;entryDy=0;exitX=1;exitY=0.5;exitDx=0;exitDy=0;" edge="1" parent="1" source="dZakz6E4PJcBAFK5S5Gv-39" target="dZakz6E4PJcBAFK5S5Gv-38">
          <mxGeometry relative="1" as="geometry">
            <mxPoint x="190" y="490" as="sourcePoint" />
            <mxPoint x="380" y="390" as="targetPoint" />
          </mxGeometry>
        </mxCell>
        <mxCell id="dZakz6E4PJcBAFK5S5Gv-41" value="N" style="resizable=0;html=1;align=right;verticalAlign=bottom;" connectable="0" vertex="1" parent="dZakz6E4PJcBAFK5S5Gv-40">
          <mxGeometry x="1" relative="1" as="geometry">
            <mxPoint x="-20" y="-20" as="offset" />
          </mxGeometry>
        </mxCell>
        <mxCell id="dZakz6E4PJcBAFK5S5Gv-42" value="" style="endArrow=none;html=1;rounded=0;entryX=0.5;entryY=1;entryDx=0;entryDy=0;exitX=0;exitY=0.5;exitDx=0;exitDy=0;" edge="1" parent="1" source="dZakz6E4PJcBAFK5S5Gv-39" target="dZakz6E4PJcBAFK5S5Gv-14">
          <mxGeometry relative="1" as="geometry">
            <mxPoint x="220" y="390" as="sourcePoint" />
            <mxPoint x="380" y="390" as="targetPoint" />
          </mxGeometry>
        </mxCell>
        <mxCell id="dZakz6E4PJcBAFK5S5Gv-43" value="1" style="resizable=0;html=1;align=right;verticalAlign=bottom;" connectable="0" vertex="1" parent="dZakz6E4PJcBAFK5S5Gv-42">
          <mxGeometry x="1" relative="1" as="geometry">
            <mxPoint x="34" y="25" as="offset" />
          </mxGeometry>
        </mxCell>
        <mxCell id="dZakz6E4PJcBAFK5S5Gv-44" value="CommentInfo" style="whiteSpace=wrap;html=1;align=center;" vertex="1" parent="1">
          <mxGeometry x="-240" y="270" width="100" height="40" as="geometry" />
        </mxCell>
        <mxCell id="dZakz6E4PJcBAFK5S5Gv-47" value="contains" style="shape=rhombus;perimeter=rhombusPerimeter;whiteSpace=wrap;html=1;align=center;rotation=-195;" vertex="1" parent="1">
          <mxGeometry x="-30" y="237.39000000000004" width="110" height="39.83" as="geometry" />
        </mxCell>
        <mxCell id="dZakz6E4PJcBAFK5S5Gv-48" value="" style="endArrow=none;html=1;rounded=0;entryX=0.5;entryY=1;entryDx=0;entryDy=0;exitX=0;exitY=0.5;exitDx=0;exitDy=0;" edge="1" parent="1" source="dZakz6E4PJcBAFK5S5Gv-47" target="hIJaKooDQX80jrJx0AJT-3">
          <mxGeometry relative="1" as="geometry">
            <mxPoint x="220" y="390" as="sourcePoint" />
            <mxPoint x="450" y="470" as="targetPoint" />
            <Array as="points">
              <mxPoint x="170" y="220" />
              <mxPoint x="210" y="210" />
            </Array>
          </mxGeometry>
        </mxCell>
        <mxCell id="dZakz6E4PJcBAFK5S5Gv-49" value="1" style="resizable=0;html=1;align=right;verticalAlign=bottom;" connectable="0" vertex="1" parent="dZakz6E4PJcBAFK5S5Gv-48">
          <mxGeometry x="1" relative="1" as="geometry">
            <mxPoint x="60" y="89" as="offset" />
          </mxGeometry>
        </mxCell>
        <mxCell id="dZakz6E4PJcBAFK5S5Gv-55" value="" style="endArrow=none;html=1;rounded=0;entryX=1;entryY=0.5;entryDx=0;entryDy=0;exitX=1;exitY=0.5;exitDx=0;exitDy=0;" edge="1" parent="1" source="dZakz6E4PJcBAFK5S5Gv-47" target="dZakz6E4PJcBAFK5S5Gv-44">
          <mxGeometry relative="1" as="geometry">
            <mxPoint x="70" y="350" as="sourcePoint" />
            <mxPoint x="230" y="350" as="targetPoint" />
          </mxGeometry>
        </mxCell>
        <mxCell id="dZakz6E4PJcBAFK5S5Gv-56" value="N" style="resizable=0;html=1;align=right;verticalAlign=bottom;" connectable="0" vertex="1" parent="dZakz6E4PJcBAFK5S5Gv-55">
          <mxGeometry x="1" relative="1" as="geometry">
            <mxPoint x="50" y="-13" as="offset" />
          </mxGeometry>
        </mxCell>
        <mxCell id="dZakz6E4PJcBAFK5S5Gv-57" value="target" style="shape=rhombus;perimeter=rhombusPerimeter;whiteSpace=wrap;html=1;align=center;rotation=5;" vertex="1" parent="1">
          <mxGeometry x="-100" y="310" width="80" height="40" as="geometry" />
        </mxCell>
        <mxCell id="dZakz6E4PJcBAFK5S5Gv-58" value="" style="endArrow=none;html=1;rounded=0;entryX=0;entryY=0.5;entryDx=0;entryDy=0;exitX=1;exitY=0.5;exitDx=0;exitDy=0;" edge="1" parent="1" source="dZakz6E4PJcBAFK5S5Gv-57" target="dZakz6E4PJcBAFK5S5Gv-14">
          <mxGeometry relative="1" as="geometry">
            <mxPoint x="70" y="350" as="sourcePoint" />
            <mxPoint x="230" y="350" as="targetPoint" />
          </mxGeometry>
        </mxCell>
        <mxCell id="dZakz6E4PJcBAFK5S5Gv-59" value="1" style="resizable=0;html=1;align=right;verticalAlign=bottom;" connectable="0" vertex="1" parent="dZakz6E4PJcBAFK5S5Gv-58">
          <mxGeometry x="1" relative="1" as="geometry">
            <mxPoint x="-12" as="offset" />
          </mxGeometry>
        </mxCell>
        <mxCell id="dZakz6E4PJcBAFK5S5Gv-60" value="" style="endArrow=none;html=1;rounded=0;entryX=1;entryY=0.5;entryDx=0;entryDy=0;exitX=0;exitY=0.5;exitDx=0;exitDy=0;" edge="1" parent="1" source="dZakz6E4PJcBAFK5S5Gv-57" target="dZakz6E4PJcBAFK5S5Gv-44">
          <mxGeometry relative="1" as="geometry">
            <mxPoint x="70" y="350" as="sourcePoint" />
            <mxPoint x="230" y="350" as="targetPoint" />
          </mxGeometry>
        </mxCell>
        <mxCell id="dZakz6E4PJcBAFK5S5Gv-61" value="1" style="resizable=0;html=1;align=right;verticalAlign=bottom;" connectable="0" vertex="1" parent="dZakz6E4PJcBAFK5S5Gv-60">
          <mxGeometry x="1" relative="1" as="geometry">
            <mxPoint x="40" y="30" as="offset" />
          </mxGeometry>
        </mxCell>
        <mxCell id="dZakz6E4PJcBAFK5S5Gv-63" value="存在comment对应patch(Revision)错位的问题，估计和Patch的类型有关系" style="shape=note;size=20;whiteSpace=wrap;html=1;" vertex="1" parent="1">
          <mxGeometry x="-550" y="340" width="220" height="84.44" as="geometry" />
        </mxCell>
        <mxCell id="dZakz6E4PJcBAFK5S5Gv-64" value="" style="endArrow=none;html=1;rounded=0;dashed=1;dashPattern=1 2;entryX=0.5;entryY=1;entryDx=0;entryDy=0;exitX=0;exitY=0;exitDx=220;exitDy=60;exitPerimeter=0;" edge="1" parent="1" source="dZakz6E4PJcBAFK5S5Gv-63" target="dZakz6E4PJcBAFK5S5Gv-57">
          <mxGeometry relative="1" as="geometry">
            <mxPoint x="-260" y="320" as="sourcePoint" />
            <mxPoint x="-100" y="320" as="targetPoint" />
          </mxGeometry>
        </mxCell>
      </root>
    </mxGraphModel>
  </diagram>
</mxfile>
